<?xml version="1.0" encoding="UTF-8" standalone="no"?>
<!-- Created with Inkscape (http://www.inkscape.org/) -->

<svg
   xmlns:dc="http://purl.org/dc/elements/1.1/"
   xmlns:cc="http://creativecommons.org/ns#"
   xmlns:rdf="http://www.w3.org/1999/02/22-rdf-syntax-ns#"
   xmlns:svg="http://www.w3.org/2000/svg"
   xmlns="http://www.w3.org/2000/svg"
   xmlns:sodipodi="http://sodipodi.sourceforge.net/DTD/sodipodi-0.dtd"
   xmlns:inkscape="http://www.inkscape.org/namespaces/inkscape"
   width="500"
   height="70"
   viewBox="0 0 500.00001 70"
   id="svg2"
   version="1.1"
   inkscape:version="0.91 r13725"
   sodipodi:docname="unknown.svg">
  <defs
     id="defs4" />
  <sodipodi:namedview
     id="base"
     pagecolor="#ffffff"
     bordercolor="#666666"
     borderopacity="1.0"
     inkscape:pageopacity="0.0"
     inkscape:pageshadow="2"
     inkscape:zoom="1.4"
     inkscape:cx="185.50228"
     inkscape:cy="24.642939"
     inkscape:document-units="px"
     inkscape:current-layer="layer1"
     showgrid="false"
     units="px"
     inkscape:window-width="1280"
     inkscape:window-height="757"
     inkscape:window-x="1680"
     inkscape:window-y="250"
     inkscape:window-maximized="1" />
  <metadata
     id="metadata7">
    <rdf:RDF>
      <cc:Work
         rdf:about="">
        <dc:format>image/svg+xml</dc:format>
        <dc:type
           rdf:resource="http://purl.org/dc/dcmitype/StillImage" />
        <dc:title></dc:title>
      </cc:Work>
    </rdf:RDF>
  </metadata>
  <g
     inkscape:label="Layer 1"
     inkscape:groupmode="layer"
     id="layer1"
     transform="translate(0,-982.3622)">
    <path
       style="color:#000000;font-style:normal;font-variant:normal;font-weight:normal;font-stretch:normal;font-size:medium;line-height:normal;font-family:sans-serif;text-indent:0;text-align:start;text-decoration:none;text-decoration-line:none;text-decoration-style:solid;text-decoration-color:#000000;letter-spacing:normal;word-spacing:normal;text-transform:none;direction:ltr;block-progression:tb;writing-mode:lr-tb;baseline-shift:baseline;text-anchor:start;white-space:normal;clip-rule:nonzero;display:inline;overflow:visible;visibility:visible;opacity:1;isolation:auto;mix-blend-mode:normal;color-interpolation:sRGB;color-interpolation-filters:linearRGB;solid-color:#000000;solid-opacity:1;fill:#7f7f7f;fill-opacity:1;fill-rule:nonzero;stroke:none;stroke-width:10;stroke-linecap:butt;stroke-linejoin:round;stroke-miterlimit:4;stroke-dasharray:none;stroke-dashoffset:0;stroke-opacity:1;color-rendering:auto;image-rendering:auto;shape-rendering:auto;text-rendering:auto;enable-background:accumulate"
       d="M 25 19.285156 A 15 15 0 0 0 10 34.285156 A 15 15 0 0 0 25 49.285156 A 15 15 0 0 0 38.863281 40 L 242.39844 40 C 242.6837 38.737748 243.08538 37.565219 243.63477 36.494141 C 244.78294 34.230576 246.64234 32.109529 249.09961 30 L 39.363281 30 A 15 15 0 0 0 25 19.285156 z M 475.78125 19.664062 A 15 15 0 0 0 461.53711 30 L 264.94922 30 C 264.85924 30.117627 264.77878 30.23934 264.68555 30.355469 C 263.38249 32.013669 261.23609 33.993456 258.04297 36.660156 L 258.01758 36.685547 C 256.53593 37.959689 255.42137 39.074373 254.60547 40 L 461.76758 40 A 15 15 0 0 0 475.78125 49.664062 A 15 15 0 0 0 490.78125 34.664062 A 15 15 0 0 0 475.78125 19.664062 z "
       transform="translate(0,982.3622)"
       id="path4136" />
    <text
       sodipodi:linespacing="125%"
       id="text4181-6"
       y="1045.8866"
       x="233.10901"
       style="font-style:normal;font-weight:normal;font-size:80.35482788px;line-height:125%;font-family:sans-serif;letter-spacing:0px;word-spacing:0px;fill:#7f7f7f;fill-opacity:1;stroke:none;stroke-width:9.71003246;stroke-linecap:butt;stroke-linejoin:miter;stroke-miterlimit:4;stroke-dasharray:none;stroke-opacity:1"
       xml:space="preserve"><tspan
         style="font-style:normal;font-variant:normal;font-weight:normal;font-stretch:normal;font-family:'Noto Sans';-inkscape-font-specification:'Noto Sans';fill:#7f7f7f;fill-opacity:1;stroke:none;stroke-width:9.71003246;stroke-miterlimit:4;stroke-dasharray:none;stroke-opacity:1"
         y="1045.8866"
         x="233.10901"
         id="tspan4183-2"
         sodipodi:role="line">?</tspan></text>
  </g>
</svg>
