<?xml version="1.0" encoding="UTF-8" standalone="no"?>
<!-- Created with Inkscape (http://www.inkscape.org/) -->

<svg
   xmlns:dc="http://purl.org/dc/elements/1.1/"
   xmlns:cc="http://creativecommons.org/ns#"
   xmlns:rdf="http://www.w3.org/1999/02/22-rdf-syntax-ns#"
   xmlns:svg="http://www.w3.org/2000/svg"
   xmlns="http://www.w3.org/2000/svg"
   xmlns:xlink="http://www.w3.org/1999/xlink"
   xmlns:sodipodi="http://sodipodi.sourceforge.net/DTD/sodipodi-0.dtd"
   xmlns:inkscape="http://www.inkscape.org/namespaces/inkscape"
   width="240"
   height="160"
   viewBox="0 0 63.5 42.333336"
   version="1.1"
   id="svg8"
   sodipodi:docname="touchmode-static.svg"
   inkscape:version="0.92.4 5da689c313, 2019-01-14">
  <defs
     id="defs2">
    <linearGradient
       gradientTransform="matrix(5.6797342,0,0,5.6797342,30.000002,-1534.881)"
       inkscape:collect="always"
       xlink:href="#linearGradient829"
       id="linearGradient831"
       x1="26.458334"
       y1="280.06665"
       x2="0"
       y2="297"
       gradientUnits="userSpaceOnUse" />
    <linearGradient
       inkscape:collect="always"
       id="linearGradient829">
      <stop
         style="stop-color:#c8c8c8;stop-opacity:1"
         offset="0"
         id="stop825" />
      <stop
         style="stop-color:#646464;stop-opacity:1"
         offset="1"
         id="stop827" />
    </linearGradient>
  </defs>
  <sodipodi:namedview
     id="base"
     pagecolor="#ffffff"
     bordercolor="#666666"
     borderopacity="1.0"
     inkscape:pageopacity="0.0"
     inkscape:pageshadow="2"
     inkscape:zoom="3.959798"
     inkscape:cx="178.74502"
     inkscape:cy="49.5541"
     inkscape:document-units="mm"
     inkscape:current-layer="layer1"
     showgrid="true"
     showguides="false"
     units="px"
     inkscape:window-width="1920"
     inkscape:window-height="1046"
     inkscape:window-x="0"
     inkscape:window-y="0"
     inkscape:window-maximized="1">
    <inkscape:grid
       type="xygrid"
       id="grid815"
       empspacing="4" />
    <inkscape:grid
       type="xygrid"
       id="grid817"
       empspacing="1"
       originy="0.13229167"
       originx="0.13229167"
       dotted="true"
       enabled="false" />
  </sodipodi:namedview>
  <metadata
     id="metadata5">
    <rdf:RDF>
      <cc:Work
         rdf:about="">
        <dc:format>image/svg+xml</dc:format>
        <dc:type
           rdf:resource="http://purl.org/dc/dcmitype/StillImage" />
        <dc:title></dc:title>
      </cc:Work>
    </rdf:RDF>
  </metadata>
  <g
     inkscape:label="Layer 1"
     inkscape:groupmode="layer"
     id="layer1"
     transform="translate(0,-254.66665)">
    <rect
       style="opacity:1;fill:#282828;fill-opacity:1;stroke:none;stroke-width:0.5291667;stroke-linecap:round;stroke-linejoin:round;stroke-miterlimit:4;stroke-dasharray:none;stroke-dashoffset:0;stroke-opacity:1;paint-order:normal"
       id="rect819"
       width="59.266663"
       height="38.100025"
       x="2.116667"
       y="256.78333" />
    <path
       style="opacity:1;fill:#000000;fill-opacity:1;stroke:none;stroke-width:0.99999994;stroke-linecap:round;stroke-linejoin:round;stroke-miterlimit:4;stroke-dasharray:none;stroke-dashoffset:0;stroke-opacity:1;paint-order:normal"
       d="M 0 0 L 0 160 L 240 160 L 240 0 L 0 0 z M 8 8 L 232 8 L 232 152 L 8 152 L 8 8 z "
       transform="matrix(0.26458333,0,0,0.26458333,0,254.66665)"
       id="rect866" />
    <rect
       style="opacity:1;fill:#000096;fill-opacity:1;stroke:none;stroke-width:1.05833328;stroke-linecap:round;stroke-linejoin:round;stroke-miterlimit:4;stroke-dasharray:none;stroke-dashoffset:0;stroke-opacity:1;paint-order:normal"
       id="rect2444"
       width="46.566666"
       height="16.933323"
       x="4.2333331"
       y="267.36667" />
    <g
       aria-label="Оболонка"
       style="font-style:normal;font-variant:normal;font-weight:normal;font-stretch:normal;font-size:8.78783321px;line-height:1.25;font-family:Contemporary;-inkscape-font-specification:Contemporary;letter-spacing:0px;word-spacing:0px;fill:#ffffff;fill-opacity:1;stroke:none;stroke-width:0.26458332"
       id="text2448">
      <path
         d="m 10.145931,272.52211 q 0.746966,0 1.291812,0.31637 0.544845,0.31636 0.826056,0.8612 0.289998,0.53606 0.307574,1.20394 0.01758,0.52727 0.01758,0.78211 0,0.25485 -0.01758,0.78212 -0.02636,0.66788 -0.316362,1.21272 -0.281211,0.53606 -0.826056,0.85242 -0.536058,0.31636 -1.283024,0.31636 -0.7909048,0 -1.2302965,-0.25484 -0.5360578,-0.31637 -0.8260563,-0.85242 -0.2812107,-0.54485 -0.3075742,-1.21273 -0.00879,-0.26363 -0.00879,-0.78211 0,-0.51848 0.00879,-0.78212 0.017576,-0.66787 0.2987863,-1.20393 0.2899985,-0.54485 0.8348442,-0.86121 0.6502997,-0.37788 1.2302965,-0.37788 z m -1.0721155,1.26545 q -0.4306038,0.41303 -0.4569673,1.22151 -0.00879,0.26363 -0.00879,0.73818 0,0.47454 0.00879,0.73818 0.026364,0.80848 0.4569673,1.2215 0.369089,0.35152 1.0721155,0.35152 0.703027,0 1.133631,-0.41303 0.430603,-0.41303 0.456967,-1.22151 0.01758,-0.52727 0.01758,-0.73818 0,-0.21091 -0.01758,-0.73818 -0.02636,-0.80848 -0.456967,-1.2215 -0.430604,-0.41303 -1.133631,-0.41303 -0.5799968,0 -1.0721155,0.47454 z"
         style="fill:#ffffff;fill-opacity:1;stroke-width:0.26458332"
         id="path3295" />
      <path
         d="m 15.057231,274.68392 q 0.228484,-0.0527 0.483331,-0.0527 0.588785,0 1.045752,0.25485 0.456968,0.24606 0.711815,0.72939 0.254847,0.47454 0.254847,1.12484 0,0.61515 -0.263635,1.09848 -0.254847,0.47455 -0.711814,0.74697 -0.456968,0.26363 -1.036965,0.26363 -0.579997,0 -1.036964,-0.26363 -0.456967,-0.27242 -0.720602,-0.74697 -0.254848,-0.48333 -0.254848,-1.09848 0,-0.78211 0.210908,-1.36211 0.219696,-0.58879 0.518483,-0.95787 0.298786,-0.37788 0.738178,-0.7997 0.360301,-0.35151 0.518482,-0.57121 0.166969,-0.21969 0.166969,-0.46575 0,-0.0967 0.0703,-0.16697 0.0703,-0.0703 0.166969,-0.0703 h 0.32515 q 0.09667,0 0.166969,0.0703 0.0703,0.0703 0.0703,0.16697 0,0.38666 -0.210908,0.70302 -0.20212,0.30758 -0.641511,0.76455 -0.316362,0.31636 -0.57121,0.63272 z m -0.72939,2.05635 q 0,0.62394 0.307574,0.99303 0.307575,0.3603 0.905147,0.3603 0.597573,0 0.905147,-0.3603 0.307574,-0.36909 0.307574,-0.99303 0,-0.62393 -0.307574,-0.98423 -0.307574,-0.36909 -0.905147,-0.36909 -0.597572,0 -0.905147,0.36909 -0.307574,0.3603 -0.307574,0.98423 z"
         style="fill:#ffffff;fill-opacity:1;stroke-width:0.26458332"
         id="path3297" />
      <path
         d="m 22.585658,276.06361 q 0.01758,0.19333 0.01758,0.42182 0,0.2109 -0.01758,0.40424 -0.07909,0.89636 -0.623936,1.43241 -0.536058,0.52727 -1.45878,0.52727 -0.922723,0 -1.467568,-0.52727 -0.536058,-0.53605 -0.615149,-1.43241 -0.0088,-0.0967 -0.0088,-0.40424 0,-0.32515 0.0088,-0.42182 0.0703,-0.89636 0.615149,-1.42363 0.544845,-0.53606 1.467568,-0.53606 0.922722,0 1.467568,0.53606 0.544846,0.52727 0.615148,1.42363 z m -0.799692,0.0439 q -0.05273,-0.56242 -0.377877,-0.90515 -0.316362,-0.34272 -0.905147,-0.34272 -0.588785,0 -0.913935,0.34272 -0.316362,0.34273 -0.369089,0.90515 -0.0088,0.10545 -0.0088,0.37788 0,0.26363 0.0088,0.3603 0.05273,0.56242 0.369089,0.90514 0.32515,0.34273 0.913935,0.34273 0.588785,0 0.905147,-0.34273 0.32515,-0.34272 0.377877,-0.90514 0.01758,-0.19334 0.01758,-0.3603 0,-0.16697 -0.01758,-0.37788 z"
         style="fill:#ffffff;fill-opacity:1;stroke-width:0.26458332"
         id="path3299" />
      <path
         d="m 27.317083,274.1918 q 0.09667,0 0.166969,0.0703 0.0703,0.0703 0.0703,0.16697 v 4.09513 q 0,0.0967 -0.0703,0.16697 -0.0703,0.0703 -0.166969,0.0703 h -0.32515 q -0.09667,0 -0.166969,-0.0703 -0.0703,-0.0703 -0.0703,-0.16697 v -3.57665 h -1.836657 v 2.29363 q 0,0.77333 -0.342725,1.19514 -0.333938,0.41303 -1.124843,0.41303 h -0.105454 q -0.09667,0 -0.166969,-0.0703 -0.0703,-0.0703 -0.0703,-0.16697 v -0.28121 q 0,-0.0967 0.0703,-0.16697 0.0703,-0.0703 0.166969,-0.0703 h 0.105454 q 0.386665,0 0.52727,-0.21091 0.140605,-0.21969 0.140605,-0.6503 v -2.80332 q 0,-0.0967 0.0703,-0.16697 0.0703,-0.0703 0.166969,-0.0703 z"
         style="fill:#ffffff;fill-opacity:1;stroke-width:0.26458332"
         id="path3301" />
      <path
         d="m 32.832409,276.06361 q 0.01758,0.19333 0.01758,0.42182 0,0.2109 -0.01758,0.40424 -0.07909,0.89636 -0.623936,1.43241 -0.536058,0.52727 -1.45878,0.52727 -0.922723,0 -1.467568,-0.52727 -0.536058,-0.53605 -0.615149,-1.43241 -0.0088,-0.0967 -0.0088,-0.40424 0,-0.32515 0.0088,-0.42182 0.0703,-0.89636 0.615149,-1.42363 0.544845,-0.53606 1.467568,-0.53606 0.922722,0 1.467568,0.53606 0.544846,0.52727 0.615148,1.42363 z m -0.799693,0.0439 q -0.05273,-0.56242 -0.377876,-0.90515 -0.316362,-0.34272 -0.905147,-0.34272 -0.588785,0 -0.913935,0.34272 -0.316362,0.34273 -0.369089,0.90515 -0.0088,0.10545 -0.0088,0.37788 0,0.26363 0.0088,0.3603 0.05273,0.56242 0.369089,0.90514 0.32515,0.34273 0.913935,0.34273 0.588785,0 0.905147,-0.34273 0.325149,-0.34272 0.377876,-0.90514 0.01758,-0.19334 0.01758,-0.3603 0,-0.16697 -0.01758,-0.37788 z"
         style="fill:#ffffff;fill-opacity:1;stroke-width:0.26458332"
         id="path3303" />
      <path
         d="m 37.78147,274.1918 q 0.09667,0 0.166969,0.0703 0.0703,0.0703 0.0703,0.16697 v 4.09513 q 0,0.0967 -0.0703,0.16697 -0.0703,0.0703 -0.166969,0.0703 h -0.325149 q -0.09667,0 -0.166969,-0.0703 -0.0703,-0.0703 -0.0703,-0.16697 v -1.71362 H 34.74088 v 1.71362 q 0,0.0967 -0.0703,0.16697 -0.0703,0.0703 -0.166968,0.0703 h -0.32515 q -0.09667,0 -0.166969,-0.0615 -0.0703,-0.0703 -0.0703,-0.17576 v -4.09513 q 0,-0.0967 0.0703,-0.16697 0.0703,-0.0703 0.166969,-0.0703 h 0.32515 q 0.09667,0 0.166968,0.0703 0.0703,0.0703 0.0703,0.16697 v 1.62575 h 2.478169 v -1.62575 q 0,-0.0967 0.0703,-0.16697 0.0703,-0.0703 0.166969,-0.0703 z"
         style="fill:#ffffff;fill-opacity:1;stroke-width:0.26458332"
         id="path3305" />
      <path
         d="m 41.958163,274.34119 q 0.166969,-0.14939 0.342726,-0.14939 h 0.421816 q 0.08788,0 0.149393,0.0615 0.06151,0.0615 0.06151,0.14939 0,0.0967 -0.09667,0.17576 l -2.126656,1.86302 2.337563,1.94211 q 0.08788,0.0703 0.08788,0.16697 0,0.0879 -0.06151,0.14939 -0.06151,0.0615 -0.149393,0.0615 h -0.456967 q -0.184545,0 -0.360302,-0.14939 l -1.977262,-1.64332 v 1.55544 q 0,0.0967 -0.0703,0.16697 -0.0703,0.0703 -0.166969,0.0703 h -0.325149 q -0.09667,0 -0.166969,-0.0703 -0.0703,-0.0703 -0.0703,-0.16697 v -4.09513 q 0,-0.0967 0.0703,-0.16697 0.0703,-0.0703 0.166969,-0.0703 h 0.325149 q 0.09667,0 0.166969,0.0703 0.0703,0.0703 0.0703,0.16697 v 1.5203 z"
         style="fill:#ffffff;fill-opacity:1;stroke-width:0.26458332"
         id="path3307" />
      <path
         d="m 46.560102,275.87028 v -0.11424 q 0,-0.43061 -0.289998,-0.65909 -0.281211,-0.23727 -0.738178,-0.23727 -0.351513,0 -0.553633,0.12303 -0.193333,0.11424 -0.369089,0.35151 -0.05273,0.0703 -0.114242,0.0967 -0.06151,0.0264 -0.166969,0.0264 h -0.263635 q -0.09667,0 -0.175757,-0.0703 -0.0703,-0.0703 -0.06151,-0.16697 0.02636,-0.26364 0.254848,-0.51848 0.237271,-0.26364 0.623936,-0.43061 0.386664,-0.16697 0.826056,-0.16697 0.817268,0 1.318175,0.45697 0.509694,0.45697 0.509694,1.28302 v 2.68029 q 0,0.0967 -0.0703,0.16697 -0.0703,0.0703 -0.166969,0.0703 h -0.32515 q -0.09667,0 -0.166969,-0.0703 -0.0703,-0.0703 -0.0703,-0.16697 v -0.3603 q -0.140605,0.31636 -0.597572,0.50091 -0.456968,0.18454 -0.913935,0.18454 -0.448179,0 -0.799693,-0.15818 -0.351513,-0.16697 -0.544845,-0.44818 -0.184545,-0.28121 -0.184545,-0.63272 0,-0.65909 0.492119,-1.02818 0.492119,-0.37787 1.309387,-0.50969 z m 0,0.70302 -1.036964,0.16697 q -0.571209,0.0879 -0.887571,0.29 -0.316362,0.19333 -0.316362,0.49212 0,0.2197 0.20212,0.39545 0.20212,0.17576 0.615149,0.17576 0.632723,0 1.028176,-0.3603 0.395452,-0.3603 0.395452,-0.9403 z"
         style="fill:#ffffff;fill-opacity:1;stroke-width:0.26458332"
         id="path3309" />
    </g>
    <path
       style="fill:none;stroke:#ff0000;stroke-width:1.05833333;stroke-linecap:round;stroke-linejoin:round;stroke-opacity:1;stroke-miterlimit:4;stroke-dasharray:none"
       d="m 52.387499,267.89582 h 4.233334"
       id="path2475"
       inkscape:connector-curvature="0" />
    <path
       style="fill:none;stroke:#ff0000;stroke-width:1.05833328;stroke-linecap:round;stroke-linejoin:round;stroke-miterlimit:4;stroke-dasharray:none;stroke-opacity:1"
       d="m 52.387499,283.77082 h 4.233334"
       id="path2475-1"
       inkscape:connector-curvature="0" />
    <path
       style="fill:none;stroke:#ff0000;stroke-width:1.05833333;stroke-linecap:round;stroke-linejoin:round;stroke-opacity:1;stroke-miterlimit:4;stroke-dasharray:none"
       d="m 54.504166,267.89582 v 15.875"
       id="path2492"
       inkscape:connector-curvature="0" />
    <path
       inkscape:connector-curvature="0"
       style="opacity:1;fill:#ffffff;fill-opacity:1;stroke:none;stroke-width:0.26458332;stroke-linecap:round;stroke-linejoin:round;stroke-miterlimit:4;stroke-dasharray:none;stroke-dashoffset:0;stroke-opacity:1;paint-order:normal"
       d="m 32.97474,281.66287 c -0.621882,0.62188 -0.621878,1.62319 8e-6,2.24507 l 6.154191,6.15419 -1.533617,-0.41108 c -0.849502,-0.22762 -1.717061,0.27304 -1.944685,1.12255 -0.227644,0.84948 0.273022,1.71707 1.122523,1.94469 l 1.559925,0.41766 6.116915,1.74737 8.730322,-8.73033 -2.525686,-2.52568 -1.964428,-1.96443 -1.683798,-1.6838 c -0.621886,-0.62189 -1.623188,-0.62189 -2.245072,0 -0.621883,0.62188 -0.621879,1.62318 8e-6,2.24507 l -0.800247,-0.80025 c -0.644924,-0.64492 -1.664853,-0.66355 -2.286735,-0.0417 -0.621883,0.62188 -0.603256,1.64181 0.04167,2.28674 l -0.322291,-0.3223 c -0.621886,-0.62188 -1.623189,-0.62189 -2.245072,0 -0.621883,0.62188 -0.62188,1.62318 7e-6,2.24507 l -3.928863,-3.92886 c -0.621886,-0.62189 -1.623187,-0.62189 -2.245072,-10e-6 z"
       id="rect903-1-2" />
  </g>
</svg>
